<svg xmlns="http://www.w3.org/2000/svg" xmlns:svg="http://www.w3.org/2000/svg" xmlns:xlink="http://www.w3.org/1999/xlink" id="svg2" width="64" height="64" version="1.1"><defs id="defs5455"><linearGradient id="linearGradient82546"><stop style="stop-color:#000;stop-opacity:1" id="stop82542" offset="0"/><stop style="stop-color:#000;stop-opacity:0" id="stop82544" offset="1"/></linearGradient><linearGradient id="linearGradient39400"><stop style="stop-color:#000;stop-opacity:1" id="stop39396" offset="0"/><stop style="stop-color:#147cdc;stop-opacity:0" id="stop39398" offset="1"/></linearGradient><linearGradient id="linearGradient919"><stop style="stop-color:#fff;stop-opacity:1" id="stop915" offset="0"/><stop style="stop-color:#fff;stop-opacity:0" id="stop917" offset="1"/></linearGradient><linearGradient id="linearGradient4393"><stop style="stop-color:#000;stop-opacity:1" id="stop4395" offset="0"/><stop style="stop-color:#000;stop-opacity:0" id="stop4397" offset="1"/></linearGradient><linearGradient id="linearGradient4227"><stop id="stop4229" offset="0" style="stop-color:#f5f5f5;stop-opacity:1"/><stop id="stop4231" offset="1" style="stop-color:#f9f9f9;stop-opacity:1"/></linearGradient><linearGradient id="linearGradient4274"><stop id="stop4276" offset="0" style="stop-color:#fff;stop-opacity:1"/><stop id="stop4278" offset="1" style="stop-color:#fff;stop-opacity:.48760331"/></linearGradient><linearGradient id="linearGradient921" x1="339.668" x2="357.403" y1="472.302" y2="502.195" gradientTransform="translate(66.903794,39.496194)" gradientUnits="userSpaceOnUse" xlink:href="#linearGradient919"/><linearGradient id="linearGradient39402" x1="376.818" x2="337.818" y1="549.95" y2="519.95" gradientTransform="translate(68.75316,-8.152382)" gradientUnits="userSpaceOnUse" xlink:href="#linearGradient39400"/><linearGradient id="linearGradient49568" x1="443.571" x2="443.571" y1="510.798" y2="526.798" gradientTransform="translate(-22.999995,4.999998)" gradientUnits="userSpaceOnUse" xlink:href="#linearGradient4393"/><linearGradient id="linearGradient76299" x1="390.571" x2="442.571" y1="498.298" y2="498.298" gradientTransform="translate(-3e-6,3)" gradientUnits="userSpaceOnUse" xlink:href="#linearGradient4274"/><linearGradient id="linearGradient76301" x1="396.571" x2="426.571" y1="498.798" y2="511.798" gradientTransform="translate(-3e-6,1)" gradientUnits="userSpaceOnUse" xlink:href="#linearGradient4227"/><linearGradient id="linearGradient82548" x1="357.489" x2="384.419" y1="494.852" y2="541.495" gradientTransform="translate(58.00001)" gradientUnits="userSpaceOnUse" xlink:href="#linearGradient82546"/><style id="current-color-scheme" type="text/css">.ColorScheme-Highlight{color:#3593e6}</style></defs><metadata id="metadata5458"/><g id="layer1" transform="matrix(1 0 0 1 -384.57143 -483.798)"><path style="fill:currentColor" id="path76317" d="m 388.57143,489.79812 v 5 22 c 0,0.55373 0.446,1 1,1 h 54 c 0.55399,0 1,-0.44627 1,-1 v -21.99023 c 0,-0.003 -0.002,-0.006 -0.002,-0.01 h 0.002 v -1 h -28 l -4,-4 h -24 z" class="ColorScheme-Highlight"/><path style="opacity:.35;fill:url(#linearGradient82548);fill-opacity:1" id="path76289" d="m 388.57143,489.79812 v 5 22 c 0,0.55373 0.446,1 1,1 h 54 c 0.55399,0 1,-0.44627 1,-1 v -21.99023 c 0,-0.003 -0.002,-0.006 -0.002,-0.01 h 0.002 v -1 h -28 l -4,-4 h -24 z"/><rect id="rect76291" width="52" height="15" x="390.571" y="498.798" rx="1" ry="1" style="color:#000;clip-rule:nonzero;display:inline;overflow:visible;visibility:visible;isolation:auto;mix-blend-mode:normal;color-interpolation:sRGB;color-interpolation-filters:linearRGB;solid-color:#000;solid-opacity:1;fill:url(#linearGradient76301);fill-opacity:1;fill-rule:nonzero;stroke:none;stroke-width:1;stroke-linecap:butt;stroke-linejoin:miter;stroke-miterlimit:4;stroke-dasharray:none;stroke-dashoffset:0;stroke-opacity:1;marker:none;color-rendering:auto;image-rendering:auto;shape-rendering:auto;text-rendering:auto;enable-background:accumulate"/><path style="opacity:.3;fill:#fff;fill-opacity:1;fill-rule:evenodd" id="path76293" d="m 387.57144,511.798 v 1 h 19.99999 l 3,-5 -4,4 z"/><path style="opacity:.3;fill:#fff;fill-opacity:1;fill-rule:evenodd" id="path76295" d="m 412.57143,489.798 3,5 h 2 27 v -1 h -27 -1 z"/><path id="path76297" d="m 391.57143,498.798 c -0.55401,0 -1,0.446 -1,1 v 1 c 0,-0.554 0.44599,-1 1,-1 h 50 c 0.55401,0 1,0.446 1,1 v -1 c 0,-0.554 -0.44599,-1 -1,-1 z" style="color:#000;clip-rule:nonzero;display:inline;overflow:visible;visibility:visible;opacity:.85;isolation:auto;mix-blend-mode:normal;color-interpolation:sRGB;color-interpolation-filters:linearRGB;solid-color:#000;solid-opacity:1;fill:url(#linearGradient76299);fill-opacity:1;fill-rule:nonzero;stroke:none;stroke-width:1;stroke-linecap:butt;stroke-linejoin:miter;stroke-miterlimit:4;stroke-dasharray:none;stroke-dashoffset:0;stroke-opacity:1;marker:none;color-rendering:auto;image-rendering:auto;shape-rendering:auto;text-rendering:auto;enable-background:accumulate"/><path style="fill:currentColor" id="path889" d="m 410.57144,507.79802 -4,4 h -19 v 1 h 0.002 c -5e-5,0.004 -0.002,0.008 -0.002,0.0117 v 26.98828 1 c 0,0.554 0.44599,1 1,1 h 56 c 0.55401,0 1,-0.446 1,-1 v -1 -26.98828 -0.0117 -5 z" class="ColorScheme-Highlight"/><path style="opacity:.1;fill:url(#linearGradient921);fill-opacity:1" id="path893" d="m 410.57144,507.79802 -4,4 h -19 v 1 h 0.002 c -5e-5,0.004 -0.002,0.008 -0.002,0.0117 v 26.98828 1 c 0,0.554 0.44599,1 1,1 h 56 c 0.55401,0 1,-0.446 1,-1 v -1 -26.98828 -0.0117 -5 z"/><path style="opacity:.3;fill:url(#linearGradient39402);fill-opacity:1" id="path35453" d="m 410.57144,507.79802 -4,4 h -19 v 1 h 0.002 c -5e-5,0.004 -0.002,0.008 -0.002,0.0117 v 26.98828 1 c 0,0.554 0.44599,1 1,1 h 56 c 0.55401,0 1,-0.446 1,-1 v -1 -26.98828 -0.0117 -5 z"/><path style="opacity:.109;fill:url(#linearGradient49568);fill-opacity:1;fill-rule:evenodd;stroke:none;stroke-width:1px;stroke-linecap:butt;stroke-linejoin:miter;stroke-opacity:1" id="path49566" d="m 387.57144,512.798 h 20 l 3,-5 h 35 v 33 h -30 z"/><path style="opacity:.3;fill:#fff;fill-opacity:1;fill-rule:evenodd" id="path49671" d="m 387.57145,511.79802 v 1 h 19.99999 l 3,-5 -4,4 z"/><path style="color:#000;clip-rule:nonzero;display:inline;overflow:visible;visibility:visible;opacity:.3;isolation:auto;mix-blend-mode:normal;color-interpolation:sRGB;color-interpolation-filters:linearRGB;solid-color:#000;solid-opacity:1;fill:#000;fill-opacity:1;fill-rule:nonzero;stroke:none;stroke-width:1;stroke-linecap:butt;stroke-linejoin:miter;stroke-miterlimit:4;stroke-dasharray:none;stroke-dashoffset:0;stroke-opacity:1;marker:none;color-rendering:auto;image-rendering:auto;shape-rendering:auto;text-rendering:auto;enable-background:accumulate" id="path49673" d="m 388.57144,541.798 c -0.55401,0 -1,-0.446 -1,-1 v -1 c 0,0.554 0.44599,1 1,1 h 56 c 0.55401,0 1,-0.446 1,-1 v 1 c 0,0.554 -0.44599,1 -1,1 z"/></g></svg>